<svg width="395" height="80" viewBox="0 0 395 80" fill="none" xmlns="http://www.w3.org/2000/svg">
<g clip-path="url(#clip0_179_36)">
<rect width="395" height="80" fill="white"/>
<path d="M361.56 63.4675H355.939L344.862 30.4025H350.284L358.815 55.6311L367.247 30.4025H372.967L381.432 55.6311L389.863 30.4025H395.352L384.275 63.4675H378.621L370.057 38.0074L361.56 63.4675Z" fill="black"/>
<path d="M326.262 64.3272C323.221 64.3272 320.443 63.5446 317.93 61.9795C315.439 60.4145 313.444 58.3203 311.945 55.6972C310.468 53.052 309.73 50.1312 309.73 46.935C309.73 44.5102 310.16 42.2507 311.02 40.1566C311.879 38.0405 313.059 36.1888 314.557 34.6017C316.078 32.9925 317.842 31.7361 319.848 30.8323C321.854 29.9285 323.992 29.4766 326.262 29.4766C329.304 29.4766 332.071 30.2592 334.562 31.8242C337.075 33.3893 339.07 35.4945 340.547 38.1397C342.046 40.7849 342.795 43.7166 342.795 46.935C342.795 49.3377 342.365 51.5861 341.505 53.6802C340.646 55.7743 339.455 57.626 337.934 59.2351C336.435 60.8223 334.683 62.0677 332.677 62.9715C330.693 63.8753 328.555 64.3272 326.262 64.3272ZM326.262 58.7722C328.335 58.7722 330.197 58.2322 331.85 57.152C333.526 56.0499 334.837 54.606 335.785 52.8205C336.755 51.013 337.24 49.0511 337.24 46.935C337.24 44.7747 336.744 42.7908 335.752 40.9832C334.782 39.1757 333.471 37.7319 331.817 36.6517C330.164 35.5716 328.313 35.0315 326.262 35.0315C324.19 35.0315 322.328 35.5826 320.674 36.6848C319.021 37.7649 317.71 39.2088 316.74 41.0163C315.77 42.8239 315.285 44.7967 315.285 46.935C315.285 49.1393 315.781 51.1452 316.773 52.9528C317.765 54.7383 319.098 56.1601 320.774 57.2182C322.449 58.2542 324.279 58.7722 326.262 58.7722Z" fill="black"/>
<path d="M298.54 63.4675V13.87H304.095V63.4675H298.54Z" fill="black"/>
<path d="M283.12 22.2354V30.4024H292.808V35.9574H283.12V63.4674H277.565V35.9574H273.299V30.4024H277.565V22.2354C277.565 20.538 277.973 19.006 278.788 17.6393C279.626 16.2506 280.739 15.1484 282.128 14.3328C283.538 13.4952 285.081 13.0764 286.757 13.0764C287.991 13.0764 289.193 13.3299 290.361 13.8369C291.529 14.3218 292.565 15.0492 293.469 16.0191L289.501 19.9539C289.193 19.5351 288.785 19.2154 288.278 18.995C287.793 18.7525 287.286 18.6313 286.757 18.6313C285.765 18.6313 284.905 18.984 284.178 19.6894C283.472 20.3947 283.12 21.2434 283.12 22.2354Z" fill="black"/>
<path d="M253.222 64.3272C250.18 64.3272 247.403 63.5446 244.89 61.9795C242.399 60.4145 240.404 58.3203 238.905 55.6972C237.428 53.052 236.69 50.1312 236.69 46.935C236.69 44.5102 237.12 42.2507 237.979 40.1566C238.839 38.0405 240.018 36.1888 241.517 34.6017C243.038 32.9925 244.802 31.7361 246.808 30.8323C248.814 29.9285 250.952 29.4766 253.222 29.4766C255.713 29.4766 257.995 29.9836 260.067 30.9976C262.161 31.9896 263.947 33.3783 265.423 35.1638C266.922 36.9493 268.036 39.0214 268.763 41.38C269.512 43.7387 269.788 46.2626 269.59 48.9519H242.609C242.873 50.8256 243.49 52.5009 244.46 53.9778C245.43 55.4327 246.665 56.5899 248.163 57.4496C249.684 58.3093 251.371 58.7502 253.222 58.7722C255.206 58.7722 257.003 58.2652 258.612 57.2512C260.221 56.2152 261.522 54.8044 262.514 53.0189L268.168 54.3415C266.845 57.2733 264.85 59.676 262.183 61.5497C259.516 63.4013 256.529 64.3272 253.222 64.3272ZM242.443 44.5873H264.002C263.825 42.7357 263.23 41.0494 262.216 39.5284C261.202 37.9854 259.913 36.7509 258.348 35.8251C256.782 34.8993 255.074 34.4364 253.222 34.4364C251.371 34.4364 249.673 34.8883 248.13 35.792C246.587 36.6958 245.309 37.9192 244.295 39.4623C243.303 40.9833 242.686 42.6916 242.443 44.5873Z" fill="black"/>
<path d="M225.5 63.4675V13.87H231.054V63.4675H225.5Z" fill="black"/>
<path d="M211.808 30.4024H217.363V63.4674H211.808V30.4024ZM214.652 25.0128C213.77 25.0128 213.032 24.7263 212.437 24.1531C211.842 23.58 211.544 22.8636 211.544 22.0039C211.544 21.1442 211.842 20.4278 212.437 19.8547C213.032 19.2816 213.759 18.995 214.619 18.995C215.479 18.995 216.206 19.2816 216.801 19.8547C217.396 20.4278 217.694 21.1442 217.694 22.0039C217.694 22.8636 217.396 23.58 216.801 24.1531C216.228 24.7263 215.512 25.0128 214.652 25.0128Z" fill="black"/>
<path d="M198.755 30.4025H204.31V64.5256C204.31 66.7079 203.836 68.7358 202.888 70.6095C201.963 72.5053 200.706 74.1475 199.119 75.5362C197.532 76.947 195.724 78.0381 193.696 78.8097C191.668 79.6032 189.552 80 187.348 80C185.055 80 182.84 79.482 180.702 78.4459C178.563 77.4319 176.69 76.0653 175.081 74.3459C173.494 72.6485 172.347 70.7418 171.642 68.6256L176.734 66.3111C177.153 67.8321 177.902 69.1988 178.982 70.4111C180.084 71.6456 181.363 72.6155 182.818 73.3209C184.295 74.0483 185.805 74.412 187.348 74.412C188.803 74.412 190.202 74.1585 191.547 73.6515C192.914 73.1445 194.137 72.4391 195.217 71.5353C196.319 70.6536 197.179 69.6066 197.796 68.3942C198.436 67.2038 198.755 65.9143 198.755 64.5256V57.9456C197.631 59.8413 196.143 61.3844 194.291 62.5747C192.462 63.743 190.324 64.3272 187.877 64.3272C185.54 64.3272 183.347 63.8753 181.297 62.9715C179.247 62.0677 177.45 60.8223 175.907 59.2352C174.364 57.626 173.152 55.7744 172.27 53.6802C171.388 51.5861 170.948 49.3377 170.948 46.935C170.948 44.5322 171.388 42.2838 172.27 40.1897C173.152 38.0735 174.364 36.2219 175.907 34.6348C177.45 33.0256 179.247 31.7691 181.297 30.8654C183.347 29.9616 185.54 29.5097 187.877 29.5097C190.324 29.5097 192.462 30.0939 194.291 31.2622C196.143 32.4304 197.631 33.9735 198.755 35.8913V30.4025ZM187.91 58.9376C190.048 58.9376 191.9 58.3865 193.465 57.2843C195.052 56.1822 196.275 54.7163 197.135 52.8867C197.995 51.0571 198.425 49.0732 198.425 46.935C198.425 44.7306 197.984 42.7247 197.102 40.9171C196.242 39.0875 195.019 37.6327 193.432 36.5526C191.867 35.4504 190.026 34.8993 187.91 34.8993C185.838 34.8993 183.942 35.4394 182.223 36.5195C180.503 37.5996 179.137 39.0545 178.123 40.8841C177.131 42.6916 176.635 44.7086 176.635 46.935C176.635 49.1613 177.142 51.1893 178.156 53.0189C179.192 54.8265 180.558 56.2703 182.256 57.3505C183.975 58.4085 185.86 58.9376 187.91 58.9376Z" fill="black"/>
<path d="M146.074 17.1765H152.786L169.617 63.4675H163.731L160.292 54.0109H138.568L135.163 63.4675H129.244L146.074 17.1765ZM140.619 48.456H158.242L149.414 24.2854L140.619 48.456Z" fill="black"/>
<path d="M0 63.4571L74.6218 63.9152L85.0657 41.9922L7.45834 41.5352L0 63.4571Z" fill="url(#paint0_linear_179_36)"/>
<path d="M85.0659 41.9923L77.3973 63.9152L67.211 63.873L77.6549 41.95L85.0659 41.9923Z" fill="#503B77"/>
<path d="M14.2808 21.4825C28.1714 23.6416 37.1236 35.2028 45.2583 45.7081C52.8045 55.4535 59.6471 64.2903 69.0758 63.8699C71.9793 56.6123 77.6327 41.9474 77.6327 41.9474C67.9144 42.1794 59.5915 32.7137 50.7506 22.6589C42.1178 12.8408 34.3122 1.33666 21.5896 0L14.2808 21.4825Z" fill="url(#paint1_linear_179_36)"/>
<path d="M88.6812 30.4218L73.6359 74.2507L102.52 53.0854L88.6812 30.4218Z" fill="#503B77"/>
</g>
<defs>
<linearGradient id="paint0_linear_179_36" x1="7.00421" y1="52.217" x2="56.527" y2="75.3555" gradientUnits="userSpaceOnUse">
<stop stop-color="#DC2185"/>
<stop offset="1" stop-color="#39255D"/>
</linearGradient>
<linearGradient id="paint1_linear_179_36" x1="22.5396" y1="11.88" x2="79.6886" y2="37.9253" gradientUnits="userSpaceOnUse">
<stop stop-color="#00D5D5"/>
<stop offset="1" stop-color="#503B77"/>
</linearGradient>
<clipPath id="clip0_179_36">
<rect width="395" height="80" fill="white"/>
</clipPath>
</defs>
</svg>
