<svg width="392" height="79" viewBox="0 0 392 79" fill="none" xmlns="http://www.w3.org/2000/svg">
<path d="M354.143 64.3271L343.506 29.418H349.143L356.688 56.1453H357.052L364.506 29.418H370.234L377.597 56.0544H377.961L385.506 29.418H391.143L380.506 64.3271H375.234L367.597 37.5089H367.052L359.415 64.3271H354.143Z" fill="black"/>
<path d="M326.615 65.0544C323.464 65.0544 320.699 64.3044 318.32 62.8044C315.956 61.3044 314.108 59.2059 312.774 56.509C311.456 53.812 310.797 50.6605 310.797 47.0544C310.797 43.418 311.456 40.2438 312.774 37.5317C314.108 34.8196 315.956 32.7135 318.32 31.2135C320.699 29.7135 323.464 28.9635 326.615 28.9635C329.767 28.9635 332.524 29.7135 334.888 31.2135C337.267 32.7135 339.115 34.8196 340.433 37.5317C341.767 40.2438 342.433 43.418 342.433 47.0544C342.433 50.6605 341.767 53.812 340.433 56.509C339.115 59.2059 337.267 61.3044 334.888 62.8044C332.524 64.3044 329.767 65.0544 326.615 65.0544ZM326.615 60.2362C329.009 60.2362 330.979 59.6226 332.524 58.3953C334.07 57.168 335.214 55.5544 335.956 53.5544C336.699 51.5544 337.07 49.3877 337.07 47.0544C337.07 44.7211 336.699 42.5468 335.956 40.5317C335.214 38.5165 334.07 36.8877 332.524 35.6453C330.979 34.4029 329.009 33.7817 326.615 33.7817C324.221 33.7817 322.252 34.4029 320.706 35.6453C319.161 36.8877 318.017 38.5165 317.274 40.5317C316.532 42.5468 316.161 44.7211 316.161 47.0544C316.161 49.3877 316.532 51.5544 317.274 53.5544C318.017 55.5544 319.161 57.168 320.706 58.3953C322.252 59.6226 324.221 60.2362 326.615 60.2362Z" fill="black"/>
<path d="M305.81 17.7817V64.3271H300.446V17.7817H305.81Z" fill="black"/>
<path d="M266.811 64.3271V17.7817H294.72V22.7817H272.447V38.5089H292.629V43.5089H272.447V64.3271H266.811Z" fill="black"/>
<path d="M246.67 65.0544C243.306 65.0544 240.405 64.312 237.965 62.8271C235.541 61.3271 233.67 59.2362 232.352 56.5544C231.049 53.8574 230.397 50.7211 230.397 47.1453C230.397 43.5696 231.049 40.418 232.352 37.6908C233.67 34.9483 235.503 32.812 237.852 31.2817C240.215 29.7362 242.973 28.9635 246.124 28.9635C247.943 28.9635 249.738 29.2665 251.511 29.8726C253.284 30.4787 254.897 31.4635 256.352 32.8271C257.806 34.1756 258.965 35.9635 259.829 38.1908C260.693 40.418 261.124 43.1605 261.124 46.418V48.6908H234.215V44.0544H255.67C255.67 42.0847 255.276 40.3271 254.488 38.7817C253.715 37.2362 252.609 36.0165 251.17 35.1226C249.746 34.2287 248.064 33.7817 246.124 33.7817C243.988 33.7817 242.14 34.312 240.579 35.3726C239.034 36.418 237.844 37.7817 237.011 39.4635C236.178 41.1453 235.761 42.9484 235.761 44.8726V47.9635C235.761 50.5999 236.215 52.8347 237.124 54.668C238.049 56.4862 239.329 57.8726 240.965 58.8271C242.602 59.7665 244.503 60.2362 246.67 60.2362C248.079 60.2362 249.352 60.0393 250.488 59.6453C251.64 59.2362 252.632 58.6302 253.465 57.8271C254.299 57.009 254.943 55.9938 255.397 54.7817L260.579 56.2362C260.034 57.9938 259.117 59.5393 257.829 60.8726C256.541 62.1908 254.95 63.2211 253.056 63.9635C251.162 64.6908 249.034 65.0544 246.67 65.0544Z" fill="black"/>
<path d="M225.41 17.7817V64.3271H220.046V17.7817H225.41Z" fill="black"/>
<path d="M208.058 64.3271V29.4181H213.422V64.3271H208.058ZM210.786 23.5999C209.74 23.5999 208.839 23.2438 208.081 22.5317C207.339 21.8196 206.968 20.9635 206.968 19.9635C206.968 18.9635 207.339 18.1075 208.081 17.3953C208.839 16.6832 209.74 16.3271 210.786 16.3271C211.831 16.3271 212.725 16.6832 213.468 17.3953C214.225 18.1075 214.604 18.9635 214.604 19.9635C214.604 20.9635 214.225 21.8196 213.468 22.5317C212.725 23.2438 211.831 23.5999 210.786 23.5999Z" fill="black"/>
<path d="M186.349 78.1453C183.758 78.1453 181.531 77.812 179.668 77.1453C177.804 76.4938 176.251 75.6302 175.008 74.5544C173.781 73.4938 172.804 72.3574 172.077 71.1453L176.349 68.1453C176.834 68.7817 177.448 69.509 178.19 70.3271C178.933 71.1605 179.948 71.8802 181.236 72.4862C182.539 73.1074 184.243 73.418 186.349 73.418C189.168 73.418 191.493 72.7362 193.327 71.3726C195.16 70.009 196.077 67.8726 196.077 64.9635V57.8726H195.622C195.228 58.509 194.668 59.2968 193.94 60.2362C193.228 61.1605 192.198 61.9862 190.849 62.7135C189.516 63.4256 187.713 63.7817 185.44 63.7817C182.622 63.7817 180.092 63.115 177.849 61.7817C175.622 60.4483 173.857 58.509 172.554 55.9635C171.266 53.418 170.622 50.3271 170.622 46.6908C170.622 43.115 171.251 40.0014 172.508 37.3499C173.766 34.6832 175.516 32.6226 177.758 31.168C180.001 29.6983 182.592 28.9635 185.531 28.9635C187.804 28.9635 189.607 29.3423 190.94 30.0999C192.289 30.8423 193.319 31.6908 194.031 32.6453C194.758 33.5847 195.319 34.3574 195.713 34.9635H196.258V29.418H201.44V65.3271C201.44 68.3271 200.758 70.7665 199.395 72.6453C198.046 74.5393 196.228 75.9256 193.94 76.8044C191.668 77.6983 189.137 78.1453 186.349 78.1453ZM186.168 58.9635C188.319 58.9635 190.137 58.4711 191.622 57.4862C193.107 56.5014 194.236 55.0847 195.008 53.2362C195.781 51.3877 196.168 49.1756 196.168 46.5999C196.168 44.0847 195.789 41.865 195.031 39.9408C194.274 38.0165 193.152 36.509 191.668 35.418C190.183 34.3271 188.349 33.7817 186.168 33.7817C183.895 33.7817 182.001 34.3574 180.486 35.509C178.986 36.6605 177.857 38.2059 177.099 40.1453C176.357 42.0847 175.986 44.2362 175.986 46.5999C175.986 49.0241 176.364 51.168 177.122 53.0317C177.895 54.8802 179.031 56.3347 180.531 57.3953C182.046 58.4408 183.925 58.9635 186.168 58.9635Z" fill="black"/>
<path d="M134.845 64.3271H128.936L146.027 17.7817H151.845L168.936 64.3271H163.027L149.118 25.1453H148.754L134.845 64.3271ZM137.027 46.1453H160.845V51.1453H137.027V46.1453Z" fill="black"/>
<path d="M0 63.4571L74.6218 63.9152L85.0657 41.9922L7.45834 41.5352L0 63.4571Z" fill="url(#paint0_linear_185_21)"/>
<path d="M85.0659 41.9923L77.3973 63.9152L67.211 63.873L77.6549 41.95L85.0659 41.9923Z" fill="#503B77"/>
<path d="M14.2808 21.4825C28.1714 23.6416 37.1236 35.2028 45.2583 45.7081C52.8045 55.4535 59.6471 64.2903 69.0758 63.8699C71.9793 56.6123 77.6327 41.9474 77.6327 41.9474C67.9144 42.1794 59.5915 32.7137 50.7506 22.6588C42.1178 12.8408 34.3122 1.33666 21.5896 0L14.2808 21.4825Z" fill="url(#paint1_linear_185_21)"/>
<path d="M88.6812 30.4218L73.6359 74.2507L102.52 53.0854L88.6812 30.4218Z" fill="#503B77"/>
<defs>
<linearGradient id="paint0_linear_185_21" x1="7.00421" y1="52.217" x2="56.527" y2="75.3555" gradientUnits="userSpaceOnUse">
<stop stop-color="#DC2185"/>
<stop offset="1" stop-color="#39255D"/>
</linearGradient>
<linearGradient id="paint1_linear_185_21" x1="22.5396" y1="11.88" x2="79.6886" y2="37.9253" gradientUnits="userSpaceOnUse">
<stop stop-color="#00D5D5"/>
<stop offset="1" stop-color="#503B77"/>
</linearGradient>
</defs>
</svg>
