<svg width="104" height="75" viewBox="0 0 104 75" fill="none" xmlns="http://www.w3.org/2000/svg">
<path d="M0 63.4571L74.6218 63.9152L85.0657 41.9922L7.45834 41.5352L0 63.4571Z" fill="url(#paint0_linear_185_4)"/>
<path d="M85.0659 41.9923L77.3973 63.9152L67.211 63.873L77.6549 41.95L85.0659 41.9923Z" fill="#503B77"/>
<path d="M14.2808 21.4825C28.1714 23.6416 37.1236 35.2028 45.2583 45.7081C52.8045 55.4535 59.6471 64.2903 69.0758 63.8699C71.9793 56.6123 77.6327 41.9474 77.6327 41.9474C67.9144 42.1794 59.5915 32.7137 50.7506 22.6589C42.1178 12.8408 34.3122 1.33666 21.5896 0L14.2808 21.4825Z" fill="url(#paint1_linear_185_4)"/>
<path d="M88.6812 30.4218L73.6359 74.2507L102.52 53.0854L88.6812 30.4218Z" fill="#503B77"/>
<defs>
<linearGradient id="paint0_linear_185_4" x1="7.00421" y1="52.217" x2="56.527" y2="75.3555" gradientUnits="userSpaceOnUse">
<stop stop-color="#DC2185"/>
<stop offset="1" stop-color="#39255D"/>
</linearGradient>
<linearGradient id="paint1_linear_185_4" x1="22.5396" y1="11.88" x2="79.6886" y2="37.9253" gradientUnits="userSpaceOnUse">
<stop stop-color="#00D5D5"/>
<stop offset="1" stop-color="#503B77"/>
</linearGradient>
</defs>
</svg>
